<svg width="811" height="309" viewBox="0 0 811 309" fill="none" xmlns="http://www.w3.org/2000/svg">
<path d="M221.791 148.831H86.8274V160.102H221.791V148.831Z" fill="#00CC33"/>
<path d="M121.088 216.802V227.237H77L122.542 159.406H141.091L154.31 179.164L167.391 159.406H186.217L230.513 227.237H187.324V216.802H211.687L176.527 163.859L154.31 197.67L131.885 163.719L96.6563 216.802H121.088Z" fill="#00CC33"/>
<path d="M77 81L122.542 148.831H141.091L154.31 129.073L167.391 148.831H186.217L230.513 81.0001H77V81ZM96.6566 91.4356H211.687L176.527 144.378L154.31 110.568L131.885 144.518L96.6566 91.4356Z" fill="#00CC33"/>
<path d="M389.9 106L366.3 75V106H349.2V35.8H366.3V66.6L389.7 35.8H409.8L382.6 70.2L410.8 106H389.9Z" fill="#232B2B"/>
<path d="M425.627 32V106H414.227V32H425.627Z" fill="#232B2B"/>
<path d="M440.394 43.6C438.327 43.6 436.594 42.9 435.194 41.5C433.794 40.1 433.094 38.3667 433.094 36.3C433.094 34.2333 433.794 32.5 435.194 31.1C436.594 29.7 438.327 29 440.394 29C442.394 29 444.094 29.7 445.494 31.1C446.894 32.5 447.594 34.2333 447.594 36.3C447.594 38.3667 446.894 40.1 445.494 41.5C444.094 42.9 442.394 43.6 440.394 43.6ZM445.994 50.9V106H434.594V50.9H445.994Z" fill="#232B2B"/>
<path d="M521.661 50C525.994 50 529.861 50.9 533.261 52.7C536.728 54.5 539.428 57.1667 541.361 60.7C543.361 64.2333 544.361 68.5 544.361 73.5V106H533.061V75.2C533.061 70.2667 531.828 66.5 529.361 63.9C526.894 61.2333 523.528 59.9 519.261 59.9C514.994 59.9 511.594 61.2333 509.061 63.9C506.594 66.5 505.361 70.2667 505.361 75.2V106H494.061V75.2C494.061 70.2667 492.828 66.5 490.361 63.9C487.894 61.2333 484.528 59.9 480.261 59.9C475.994 59.9 472.594 61.2333 470.061 63.9C467.594 66.5 466.361 70.2667 466.361 75.2V106H454.961V50.9H466.361V57.2C468.228 54.9333 470.594 53.1667 473.461 51.9C476.328 50.6333 479.394 50 482.661 50C487.061 50 490.994 50.9333 494.461 52.8C497.928 54.6667 500.594 57.3667 502.461 60.9C504.128 57.5667 506.728 54.9333 510.261 53C513.794 51 517.594 50 521.661 50Z" fill="#232B2B"/>
<path d="M549.067 78.2C549.067 72.6667 550.201 67.7667 552.467 63.5C554.801 59.2333 557.934 55.9333 561.867 53.6C565.867 51.2 570.267 50 575.067 50C579.401 50 583.167 50.8667 586.367 52.6C589.634 54.2667 592.234 56.3667 594.167 58.9V50.9H605.667V106H594.167V97.8C592.234 100.4 589.601 102.567 586.267 104.3C582.934 106.033 579.134 106.9 574.867 106.9C570.134 106.9 565.801 105.7 561.867 103.3C557.934 100.833 554.801 97.4333 552.467 93.1C550.201 88.7 549.067 83.7333 549.067 78.2ZM594.167 78.4C594.167 74.6 593.367 71.3 591.767 68.5C590.234 65.7 588.201 63.5667 585.667 62.1C583.134 60.6333 580.401 59.9 577.467 59.9C574.534 59.9 571.801 60.6333 569.267 62.1C566.734 63.5 564.667 65.6 563.067 68.4C561.534 71.1333 560.767 74.4 560.767 78.2C560.767 82 561.534 85.3333 563.067 88.2C564.667 91.0667 566.734 93.2667 569.267 94.8C571.867 96.2667 574.601 97 577.467 97C580.401 97 583.134 96.2667 585.667 94.8C588.201 93.3333 590.234 91.2 591.767 88.4C593.367 85.5333 594.167 82.2 594.167 78.4Z" fill="#232B2B"/>
<path d="M637.341 36.5C644.741 36.5 651.207 37.9333 656.741 40.8C662.341 43.6 666.641 47.6667 669.641 53C672.707 58.2667 674.241 64.4333 674.241 71.5C674.241 78.5667 672.707 84.7 669.641 89.9C666.641 95.1 662.341 99.1 656.741 101.9C651.207 104.633 644.741 106 637.341 106H614.641V36.5H637.341ZM637.341 96.7C645.474 96.7 651.707 94.5 656.041 90.1C660.374 85.7 662.541 79.5 662.541 71.5C662.541 63.4333 660.374 57.1333 656.041 52.6C651.707 48.0667 645.474 45.8 637.341 45.8H626.041V96.7H637.341Z" fill="#232B2B"/>
<path d="M721.439 91.8H692.339L687.339 106H675.439L700.339 36.4H713.539L738.439 106H726.439L721.439 91.8ZM718.239 82.5L706.939 50.2L695.539 82.5H718.239Z" fill="#232B2B"/>
<path d="M774.966 106.7C768.499 106.7 762.532 105.2 757.066 102.2C751.666 99.1333 747.366 94.9 744.166 89.5C741.032 84.0333 739.466 77.9 739.466 71.1C739.466 64.3 741.032 58.2 744.166 52.8C747.366 47.4 751.666 43.2 757.066 40.2C762.532 37.1333 768.499 35.6 774.966 35.6C781.499 35.6 787.466 37.1333 792.866 40.2C798.332 43.2 802.632 47.4 805.766 52.8C808.899 58.2 810.466 64.3 810.466 71.1C810.466 77.9 808.899 84.0333 805.766 89.5C802.632 94.9 798.332 99.1333 792.866 102.2C787.466 105.2 781.499 106.7 774.966 106.7ZM774.966 96.8C779.566 96.8 783.666 95.7667 787.266 93.7C790.866 91.5667 793.666 88.5667 795.666 84.7C797.732 80.7667 798.766 76.2333 798.766 71.1C798.766 65.9667 797.732 61.4667 795.666 57.6C793.666 53.7333 790.866 50.7667 787.266 48.7C783.666 46.6333 779.566 45.6 774.966 45.6C770.366 45.6 766.266 46.6333 762.666 48.7C759.066 50.7667 756.232 53.7333 754.166 57.6C752.166 61.4667 751.166 65.9667 751.166 71.1C751.166 76.2333 752.166 80.7667 754.166 84.7C756.232 88.5667 759.066 91.5667 762.666 93.7C766.266 95.7667 770.366 96.8 774.966 96.8Z" fill="#232B2B"/>
<path d="M412.244 197H395.144L366.544 153.7V197H349.444V126.8H366.544L395.144 170.3V126.8H412.244V197Z" fill="#232B2B"/>
<path d="M416.139 169.2C416.139 163.667 417.273 158.767 419.539 154.5C421.873 150.233 425.006 146.933 428.939 144.6C432.939 142.2 437.339 141 442.139 141C446.473 141 450.239 141.867 453.439 143.6C456.706 145.267 459.306 147.367 461.239 149.9V141.9H472.739V197H461.239V188.8C459.306 191.4 456.673 193.567 453.339 195.3C450.006 197.033 446.206 197.9 441.939 197.9C437.206 197.9 432.873 196.7 428.939 194.3C425.006 191.833 421.873 188.433 419.539 184.1C417.273 179.7 416.139 174.733 416.139 169.2ZM461.239 169.4C461.239 165.6 460.439 162.3 458.839 159.5C457.306 156.7 455.273 154.567 452.739 153.1C450.206 151.633 447.473 150.9 444.539 150.9C441.606 150.9 438.873 151.633 436.339 153.1C433.806 154.5 431.739 156.6 430.139 159.4C428.606 162.133 427.839 165.4 427.839 169.2C427.839 173 428.606 176.333 430.139 179.2C431.739 182.067 433.806 184.267 436.339 185.8C438.939 187.267 441.673 188 444.539 188C447.473 188 450.206 187.267 452.739 185.8C455.273 184.333 457.306 182.2 458.839 179.4C460.439 176.533 461.239 173.2 461.239 169.4Z" fill="#232B2B"/>
<path d="M548.413 141C552.746 141 556.613 141.9 560.013 143.7C563.48 145.5 566.18 148.167 568.113 151.7C570.113 155.233 571.113 159.5 571.113 164.5V197H559.813V166.2C559.813 161.267 558.58 157.5 556.113 154.9C553.646 152.233 550.28 150.9 546.013 150.9C541.746 150.9 538.346 152.233 535.813 154.9C533.346 157.5 532.113 161.267 532.113 166.2V197H520.813V166.2C520.813 161.267 519.58 157.5 517.113 154.9C514.646 152.233 511.28 150.9 507.013 150.9C502.746 150.9 499.346 152.233 496.813 154.9C494.346 157.5 493.113 161.267 493.113 166.2V197H481.713V141.9H493.113V148.2C494.98 145.933 497.346 144.167 500.213 142.9C503.08 141.633 506.146 141 509.413 141C513.813 141 517.746 141.933 521.213 143.8C524.68 145.667 527.346 148.367 529.213 151.9C530.88 148.567 533.48 145.933 537.013 144C540.546 142 544.346 141 548.413 141Z" fill="#232B2B"/>
<path d="M630.119 168.1C630.119 170.167 629.986 172.033 629.719 173.7H587.619C587.952 178.1 589.586 181.633 592.519 184.3C595.452 186.967 599.053 188.3 603.319 188.3C609.453 188.3 613.786 185.733 616.319 180.6H628.619C626.952 185.667 623.919 189.833 619.519 193.1C615.186 196.3 609.786 197.9 603.319 197.9C598.053 197.9 593.319 196.733 589.119 194.4C584.986 192 581.719 188.667 579.319 184.4C576.986 180.067 575.819 175.067 575.819 169.4C575.819 163.733 576.952 158.767 579.219 154.5C581.552 150.167 584.786 146.833 588.919 144.5C593.119 142.167 597.919 141 603.319 141C608.519 141 613.152 142.133 617.219 144.4C621.286 146.667 624.452 149.867 626.719 154C628.986 158.067 630.119 162.767 630.119 168.1ZM618.219 164.5C618.152 160.3 616.652 156.933 613.719 154.4C610.786 151.867 607.152 150.6 602.819 150.6C598.886 150.6 595.519 151.867 592.719 154.4C589.919 156.867 588.253 160.233 587.719 164.5H618.219Z" fill="#232B2B"/>
<path d="M374.844 287.7C369.711 287.7 365.111 286.867 361.044 285.2C356.977 283.533 353.711 281.067 351.244 277.8C348.844 274.533 347.577 270.6 347.444 266H365.644C365.911 268.6 366.811 270.6 368.344 272C369.877 273.333 371.877 274 374.344 274C376.877 274 378.877 273.433 380.344 272.3C381.811 271.1 382.544 269.467 382.544 267.4C382.544 265.667 381.944 264.233 380.744 263.1C379.611 261.967 378.177 261.033 376.444 260.3C374.777 259.567 372.377 258.733 369.244 257.8C364.711 256.4 361.011 255 358.144 253.6C355.277 252.2 352.811 250.133 350.744 247.4C348.677 244.667 347.644 241.1 347.644 236.7C347.644 230.167 350.011 225.067 354.744 221.4C359.477 217.667 365.644 215.8 373.244 215.8C380.977 215.8 387.211 217.667 391.944 221.4C396.677 225.067 399.211 230.2 399.544 236.8H381.044C380.911 234.533 380.077 232.767 378.544 231.5C377.011 230.167 375.044 229.5 372.644 229.5C370.577 229.5 368.911 230.067 367.644 231.2C366.377 232.267 365.744 233.833 365.744 235.9C365.744 238.167 366.811 239.933 368.944 241.2C371.077 242.467 374.411 243.833 378.944 245.3C383.477 246.833 387.144 248.3 389.944 249.7C392.811 251.1 395.277 253.133 397.344 255.8C399.411 258.467 400.444 261.9 400.444 266.1C400.444 270.1 399.411 273.733 397.344 277C395.344 280.267 392.411 282.867 388.544 284.8C384.677 286.733 380.111 287.7 374.844 287.7Z" fill="#232B2B"/>
<path d="M456.768 258.1C456.768 260.167 456.634 262.033 456.368 263.7H414.268C414.601 268.1 416.234 271.633 419.168 274.3C422.101 276.967 425.701 278.3 429.968 278.3C436.101 278.3 440.434 275.733 442.968 270.6H455.268C453.601 275.667 450.568 279.833 446.168 283.1C441.834 286.3 436.434 287.9 429.968 287.9C424.701 287.9 419.968 286.733 415.768 284.4C411.634 282 408.368 278.667 405.968 274.4C403.634 270.067 402.468 265.067 402.468 259.4C402.468 253.733 403.601 248.767 405.868 244.5C408.201 240.167 411.434 236.833 415.568 234.5C419.768 232.167 424.568 231 429.968 231C435.168 231 439.801 232.133 443.868 234.4C447.934 236.667 451.101 239.867 453.368 244C455.634 248.067 456.768 252.767 456.768 258.1ZM444.868 254.5C444.801 250.3 443.301 246.933 440.368 244.4C437.434 241.867 433.801 240.6 429.468 240.6C425.534 240.6 422.168 241.867 419.368 244.4C416.568 246.867 414.901 250.233 414.368 254.5H444.868Z" fill="#232B2B"/>
<path d="M473.386 239.9C475.053 237.1 477.253 234.933 479.986 233.4C482.786 231.8 486.086 231 489.886 231V242.8H486.986C482.52 242.8 479.12 243.933 476.786 246.2C474.52 248.467 473.386 252.4 473.386 258V287H461.986V231.9H473.386V239.9Z" fill="#232B2B"/>
<path d="M515.665 276.8L531.265 231.9H543.365L522.365 287H508.765L487.865 231.9H500.065L515.665 276.8Z" fill="#232B2B"/>
<path d="M551.782 224.6C549.716 224.6 547.982 223.9 546.582 222.5C545.182 221.1 544.482 219.367 544.482 217.3C544.482 215.233 545.182 213.5 546.582 212.1C547.982 210.7 549.716 210 551.782 210C553.782 210 555.482 210.7 556.882 212.1C558.282 213.5 558.982 215.233 558.982 217.3C558.982 219.367 558.282 221.1 556.882 222.5C555.482 223.9 553.782 224.6 551.782 224.6ZM557.382 231.9V287H545.982V231.9H557.382Z" fill="#232B2B"/>
<path d="M562.55 259.4C562.55 253.733 563.683 248.767 565.95 244.5C568.283 240.167 571.483 236.833 575.55 234.5C579.616 232.167 584.283 231 589.55 231C596.216 231 601.716 232.6 606.05 235.8C610.45 238.933 613.416 243.433 614.95 249.3H602.65C601.65 246.567 600.05 244.433 597.85 242.9C595.65 241.367 592.883 240.6 589.55 240.6C584.883 240.6 581.15 242.267 578.35 245.6C575.616 248.867 574.25 253.467 574.25 259.4C574.25 265.333 575.616 269.967 578.35 273.3C581.15 276.633 584.883 278.3 589.55 278.3C596.15 278.3 600.516 275.4 602.65 269.6H614.95C613.35 275.2 610.35 279.667 605.95 283C601.55 286.267 596.083 287.9 589.55 287.9C584.283 287.9 579.616 286.733 575.55 284.4C571.483 282 568.283 278.667 565.95 274.4C563.683 270.067 562.55 265.067 562.55 259.4Z" fill="#232B2B"/>
<path d="M670.811 258.1C670.811 260.167 670.677 262.033 670.411 263.7H628.311C628.644 268.1 630.277 271.633 633.211 274.3C636.144 276.967 639.744 278.3 644.011 278.3C650.144 278.3 654.477 275.733 657.011 270.6H669.311C667.644 275.667 664.611 279.833 660.211 283.1C655.877 286.3 650.477 287.9 644.011 287.9C638.744 287.9 634.011 286.733 629.811 284.4C625.677 282 622.411 278.667 620.011 274.4C617.677 270.067 616.511 265.067 616.511 259.4C616.511 253.733 617.644 248.767 619.911 244.5C622.244 240.167 625.477 236.833 629.611 234.5C633.811 232.167 638.611 231 644.011 231C649.211 231 653.844 232.133 657.911 234.4C661.977 236.667 665.144 239.867 667.411 244C669.677 248.067 670.811 252.767 670.811 258.1ZM658.911 254.5C658.844 250.3 657.344 246.933 654.411 244.4C651.477 241.867 647.844 240.6 643.511 240.6C639.577 240.6 636.211 241.867 633.411 244.4C630.611 246.867 628.944 250.233 628.411 254.5H658.911Z" fill="#232B2B"/>
<path fill-rule="evenodd" clip-rule="evenodd" d="M154 276C221.379 276 276 221.379 276 154C276 86.6213 221.379 32 154 32C86.6213 32 32 86.6213 32 154C32 221.379 86.6213 276 154 276ZM154 287C227.454 287 287 227.454 287 154C287 80.5461 227.454 21 154 21C80.5461 21 21 80.5461 21 154C21 227.454 80.5461 287 154 287Z" fill="#00CC33"/>
<path fill-rule="evenodd" clip-rule="evenodd" d="M154.5 305C237.619 305 305 237.619 305 154.5C305 71.3811 237.619 4 154.5 4C71.3811 4 4 71.3811 4 154.5C4 237.619 71.3811 305 154.5 305ZM154.5 309C239.828 309 309 239.828 309 154.5C309 69.172 239.828 0 154.5 0C69.172 0 0 69.172 0 154.5C0 239.828 69.172 309 154.5 309Z" fill="#00CC33"/>
</svg>
